<svg width="370" height="46" viewBox="0 0 370 46" fill="none" xmlns="http://www.w3.org/2000/svg">
<path d="M0.729404 1.36364H7.03622L21.8658 37.5852H22.3771L37.2067 1.36364H43.5135V45H38.5703V11.8466H38.1442L24.5078 45H19.7351L6.09872 11.8466H5.67259V45H0.729404V1.36364ZM59.3924 1.36364V45H54.1083V1.36364H59.3924ZM93.8509 12.2727C93.5952 10.1136 92.5582 8.4375 90.7401 7.24432C88.9219 6.05114 86.6918 5.45454 84.0497 5.45454C82.1179 5.45454 80.4276 5.76704 78.9787 6.39204C77.544 7.01704 76.4219 7.87642 75.6122 8.97017C74.8168 10.0639 74.419 11.3068 74.419 12.6989C74.419 13.8636 74.696 14.8651 75.25 15.7031C75.8182 16.527 76.5426 17.2159 77.4233 17.7699C78.304 18.3097 79.2273 18.7571 80.1932 19.1122C81.1591 19.4531 82.0469 19.7301 82.8565 19.9432L87.2884 21.1364C88.4247 21.4347 89.6889 21.8466 91.081 22.3722C92.4872 22.8977 93.8295 23.6151 95.108 24.5241C96.4006 25.419 97.4659 26.5696 98.304 27.9759C99.142 29.3821 99.5611 31.108 99.5611 33.1534C99.5611 35.5114 98.9432 37.642 97.7074 39.5455C96.4858 41.4489 94.696 42.9616 92.3381 44.0838C89.9943 45.206 87.1463 45.767 83.794 45.767C80.669 45.767 77.9631 45.2628 75.6761 44.2543C73.4034 43.2457 71.6136 41.8395 70.3068 40.0355C69.0142 38.2315 68.2827 36.1364 68.1122 33.75H73.5668C73.7088 35.3977 74.2628 36.7614 75.2287 37.8409C76.2088 38.9062 77.4446 39.7017 78.9361 40.2273C80.4418 40.7386 82.0611 40.9943 83.794 40.9943C85.8111 40.9943 87.6222 40.6676 89.2273 40.0142C90.8324 39.3466 92.1037 38.4233 93.0412 37.2443C93.9787 36.0511 94.4474 34.6591 94.4474 33.0682C94.4474 31.6193 94.0426 30.4403 93.233 29.5312C92.4233 28.6222 91.358 27.8835 90.0369 27.3153C88.7159 26.7472 87.2884 26.25 85.7543 25.8239L80.3849 24.2898C76.9759 23.3097 74.277 21.9105 72.2884 20.0923C70.2997 18.2741 69.3054 15.8949 69.3054 12.9545C69.3054 10.5114 69.9659 8.38068 71.2869 6.5625C72.6222 4.73011 74.4119 3.30966 76.6562 2.30114C78.9148 1.27841 81.4361 0.767044 84.2202 0.767044C87.0327 0.767044 89.5327 1.27131 91.7202 2.27983C93.9077 3.27415 95.6406 4.63778 96.919 6.37074C98.2116 8.10369 98.8935 10.071 98.9645 12.2727H93.8509ZM113.533 1.36364V45H108.249V1.36364H113.533ZM147.991 12.2727C147.736 10.1136 146.699 8.4375 144.881 7.24432C143.063 6.05114 140.832 5.45454 138.19 5.45454C136.259 5.45454 134.568 5.76704 133.119 6.39204C131.685 7.01704 130.563 7.87642 129.753 8.97017C128.957 10.0639 128.56 11.3068 128.56 12.6989C128.56 13.8636 128.837 14.8651 129.391 15.7031C129.959 16.527 130.683 17.2159 131.564 17.7699C132.445 18.3097 133.368 18.7571 134.334 19.1122C135.3 19.4531 136.188 19.7301 136.997 19.9432L141.429 21.1364C142.565 21.4347 143.83 21.8466 145.222 22.3722C146.628 22.8977 147.97 23.6151 149.249 24.5241C150.541 25.419 151.607 26.5696 152.445 27.9759C153.283 29.3821 153.702 31.108 153.702 33.1534C153.702 35.5114 153.084 37.642 151.848 39.5455C150.626 41.4489 148.837 42.9616 146.479 44.0838C144.135 45.206 141.287 45.767 137.935 45.767C134.81 45.767 132.104 45.2628 129.817 44.2543C127.544 43.2457 125.754 41.8395 124.447 40.0355C123.155 38.2315 122.423 36.1364 122.253 33.75H127.707C127.849 35.3977 128.403 36.7614 129.369 37.8409C130.349 38.9062 131.585 39.7017 133.077 40.2273C134.582 40.7386 136.202 40.9943 137.935 40.9943C139.952 40.9943 141.763 40.6676 143.368 40.0142C144.973 39.3466 146.244 38.4233 147.182 37.2443C148.119 36.0511 148.588 34.6591 148.588 33.0682C148.588 31.6193 148.183 30.4403 147.374 29.5312C146.564 28.6222 145.499 27.8835 144.178 27.3153C142.857 26.7472 141.429 26.25 139.895 25.8239L134.526 24.2898C131.116 23.3097 128.418 21.9105 126.429 20.0923C124.44 18.2741 123.446 15.8949 123.446 12.9545C123.446 10.5114 124.107 8.38068 125.428 6.5625C126.763 4.73011 128.553 3.30966 130.797 2.30114C133.055 1.27841 135.577 0.767044 138.361 0.767044C141.173 0.767044 143.673 1.27131 145.861 2.27983C148.048 3.27415 149.781 4.63778 151.06 6.37074C152.352 8.10369 153.034 10.071 153.105 12.2727H147.991ZM166.736 25.3125V45H161.708V1.36364H166.736V17.3864H167.162C167.929 15.696 169.08 14.3537 170.614 13.3594C172.162 12.3509 174.222 11.8466 176.793 11.8466C179.023 11.8466 180.976 12.294 182.652 13.1889C184.328 14.0696 185.628 15.4261 186.551 17.2585C187.489 19.0767 187.958 21.392 187.958 24.2045V45H182.929V24.5455C182.929 21.946 182.255 19.9361 180.905 18.5156C179.57 17.081 177.716 16.3636 175.344 16.3636C173.696 16.3636 172.219 16.7116 170.912 17.4077C169.62 18.1037 168.597 19.1193 167.844 20.4545C167.105 21.7898 166.736 23.4091 166.736 25.3125ZM217.782 31.6193V12.2727H222.81V45H217.782V39.4602H217.441C216.674 41.1222 215.481 42.5355 213.862 43.7003C212.242 44.8509 210.197 45.4261 207.725 45.4261C205.68 45.4261 203.862 44.9787 202.271 44.0838C200.68 43.1747 199.43 41.8111 198.521 39.9929C197.612 38.1605 197.157 35.8523 197.157 33.0682V12.2727H202.185V32.7273C202.185 35.1136 202.853 37.017 204.188 38.4375C205.538 39.858 207.256 40.5682 209.344 40.5682C210.594 40.5682 211.866 40.2486 213.158 39.6094C214.465 38.9702 215.559 37.9901 216.44 36.669C217.335 35.348 217.782 33.6648 217.782 31.6193ZM237.049 25.3125V45H232.02V12.2727H236.878V17.3864H237.304C238.071 15.7244 239.236 14.3892 240.799 13.3807C242.361 12.358 244.378 11.8466 246.85 11.8466C249.066 11.8466 251.005 12.3011 252.667 13.2102C254.328 14.1051 255.621 15.4688 256.544 17.3011C257.468 19.1193 257.929 21.4205 257.929 24.2045V45H252.901V24.5455C252.901 21.9744 252.233 19.9716 250.898 18.5369C249.563 17.0881 247.73 16.3636 245.401 16.3636C243.796 16.3636 242.361 16.7116 241.097 17.4077C239.847 18.1037 238.86 19.1193 238.135 20.4545C237.411 21.7898 237.049 23.4091 237.049 25.3125ZM281.351 12.2727V16.5341H264.391V12.2727H281.351ZM269.334 4.43182H274.362V35.625C274.362 37.0455 274.568 38.1108 274.98 38.821C275.406 39.517 275.946 39.9858 276.599 40.2273C277.267 40.4545 277.97 40.5682 278.709 40.5682C279.263 40.5682 279.717 40.5398 280.072 40.483C280.428 40.4119 280.712 40.3551 280.925 40.3125L281.947 44.8295C281.607 44.9574 281.131 45.0852 280.52 45.2131C279.909 45.3551 279.135 45.4261 278.197 45.4261C276.777 45.4261 275.385 45.1207 274.021 44.5099C272.672 43.8991 271.55 42.9688 270.655 41.7188C269.774 40.4688 269.334 38.892 269.334 36.9886V4.43182ZM302.285 45.6818C299.131 45.6818 296.411 44.9858 294.124 43.5938C291.852 42.1875 290.097 40.2273 288.862 37.7131C287.64 35.1847 287.029 32.2443 287.029 28.892C287.029 25.5398 287.64 22.5852 288.862 20.0284C290.097 17.4574 291.816 15.4545 294.018 14.0199C296.234 12.571 298.819 11.8466 301.773 11.8466C303.478 11.8466 305.161 12.1307 306.823 12.6989C308.485 13.267 309.998 14.1903 311.362 15.4688C312.725 16.733 313.812 18.4091 314.621 20.4972C315.431 22.5852 315.836 25.1562 315.836 28.2102V30.3409H290.609V25.9943H310.722C310.722 24.1477 310.353 22.5 309.614 21.0511C308.89 19.6023 307.853 18.4588 306.504 17.6207C305.168 16.7827 303.592 16.3636 301.773 16.3636C299.771 16.3636 298.038 16.8608 296.575 17.8551C295.126 18.8352 294.011 20.1136 293.229 21.6903C292.448 23.267 292.058 24.9574 292.058 26.7614V29.6591C292.058 32.1307 292.484 34.2259 293.336 35.9446C294.202 37.6491 295.403 38.9489 296.937 39.8438C298.471 40.7244 300.254 41.1648 302.285 41.1648C303.606 41.1648 304.799 40.9801 305.864 40.6108C306.944 40.2273 307.874 39.6591 308.656 38.9062C309.437 38.1392 310.04 37.1875 310.467 36.0511L315.325 37.4148C314.813 39.0625 313.954 40.5114 312.746 41.7614C311.539 42.9972 310.048 43.9631 308.272 44.6591C306.496 45.3409 304.501 45.6818 302.285 45.6818ZM323.485 45V12.2727H328.343V17.2159H328.684C329.281 15.5966 330.36 14.2827 331.923 13.2741C333.485 12.2656 335.246 11.7614 337.207 11.7614C337.576 11.7614 338.038 11.7685 338.592 11.7827C339.146 11.7969 339.565 11.8182 339.849 11.8466V16.9602C339.678 16.9176 339.288 16.8537 338.677 16.7685C338.08 16.669 337.448 16.6193 336.781 16.6193C335.19 16.6193 333.769 16.9531 332.519 17.6207C331.283 18.2741 330.303 19.1832 329.579 20.348C328.869 21.4986 328.513 22.8125 328.513 24.2898V45H323.485ZM368.991 19.6023L364.474 20.8807C364.19 20.1278 363.771 19.3963 363.217 18.6861C362.677 17.9616 361.939 17.3651 361.001 16.8963C360.064 16.4276 358.863 16.1932 357.4 16.1932C355.397 16.1932 353.728 16.6548 352.393 17.5781C351.072 18.4872 350.412 19.6449 350.412 21.0511C350.412 22.3011 350.866 23.2884 351.775 24.0128C352.684 24.7372 354.105 25.3409 356.037 25.8239L360.895 27.017C363.821 27.7273 366.001 28.8139 367.436 30.277C368.87 31.7259 369.588 33.5937 369.588 35.8807C369.588 37.7557 369.048 39.4318 367.968 40.9091C366.903 42.3864 365.412 43.5511 363.494 44.4034C361.576 45.2557 359.346 45.6818 356.804 45.6818C353.466 45.6818 350.703 44.9574 348.515 43.5085C346.328 42.0597 344.943 39.9432 344.36 37.1591L349.133 35.9659C349.588 37.7273 350.447 39.0483 351.711 39.929C352.99 40.8097 354.659 41.25 356.718 41.25C359.062 41.25 360.923 40.7528 362.301 39.7585C363.693 38.75 364.389 37.5426 364.389 36.1364C364.389 35 363.991 34.0483 363.196 33.2812C362.4 32.5 361.179 31.9176 359.531 31.5341L354.076 30.2557C351.079 29.5455 348.877 28.4446 347.471 26.9531C346.079 25.4474 345.383 23.5653 345.383 21.3068C345.383 19.4602 345.902 17.8267 346.939 16.4062C347.99 14.9858 349.417 13.8707 351.221 13.0611C353.039 12.2514 355.099 11.8466 357.4 11.8466C360.639 11.8466 363.181 12.5568 365.028 13.9773C366.889 15.3977 368.21 17.2727 368.991 19.6023Z" fill="#FAFAFA"/>
</svg>
